<svg xmlns="http://www.w3.org/2000/svg" viewBox="0 0 382.97 92"><defs><style>.cls-1{fill:#FFFFFF;}</style></defs><title>Asset 2</title><g id="Layer_2" data-name="Layer 2"><g id="Layer_1-2" data-name="Layer 1"><path class="cls-1" d="M0,1.51H21q7.5,0,11.38,3.6t3.89,10.37a14,14,0,0,1-1.48,6.8,12.38,12.38,0,0,1-4.5,4.58,17,17,0,0,1,5.15,1.76,11,11,0,0,1,3.46,2.92,10.9,10.9,0,0,1,1.9,3.88A17.59,17.59,0,0,1,41.4,40a16.26,16.26,0,0,1-1.33,6.77,13.8,13.8,0,0,1-3.75,5,16,16,0,0,1-5.86,3,27.89,27.89,0,0,1-7.78,1H0ZM14.11,22.82H16.7q6.63,0,6.63-5.25T16.7,12.31H14.11Zm0,22h3.1q5.33,0,7.63-1.37a4.71,4.71,0,0,0,2.3-4.39,4.73,4.73,0,0,0-2.3-4.4q-2.31-1.37-7.63-1.36h-3.1Z"/><path class="cls-1" d="M82.3,46.37H62.14L58.9,55.8h-15L64.51,1.51H79.92L100.58,55.8h-15ZM78.55,35.64,72.22,17.57,65.88,35.64Z"/><path class="cls-1" d="M131.47,25.42h28a77.61,77.61,0,0,1-.36,7.84,27.84,27.84,0,0,1-1.44,6.56,26.33,26.33,0,0,1-4.1,7.52,24,24,0,0,1-6.09,5.47,28.43,28.43,0,0,1-7.67,3.35A32.77,32.77,0,0,1,131,57.31a30.73,30.73,0,0,1-11.56-2.09,26.05,26.05,0,0,1-9-5.86,26.5,26.5,0,0,1-5.83-9.08,31.4,31.4,0,0,1-2.09-11.7A31.8,31.8,0,0,1,104.65,17a25.58,25.58,0,0,1,5.83-9,26.44,26.44,0,0,1,9.11-5.83A32.34,32.34,0,0,1,131.47,0a29.46,29.46,0,0,1,14.91,3.67,25.45,25.45,0,0,1,10.15,11.38l-13.39,5.54a13.7,13.7,0,0,0-4.86-6.41,12.27,12.27,0,0,0-6.81-1.94,13.71,13.71,0,0,0-5.76,1.19,12.54,12.54,0,0,0-4.43,3.38,16.49,16.49,0,0,0-2.88,5.29,21.76,21.76,0,0,0-1,6.92,21.81,21.81,0,0,0,.9,6.4,14.49,14.49,0,0,0,2.7,5.12,12.17,12.17,0,0,0,4.46,3.34,15,15,0,0,0,6.2,1.19,16.78,16.78,0,0,0,4-.47,10.54,10.54,0,0,0,3.49-1.51,8.6,8.6,0,0,0,2.56-2.7,10.82,10.82,0,0,0,1.36-4H131.47Z"/><path class="cls-1" d="M168.41,1.51h20.88a24.75,24.75,0,0,1,10.4,2.23,28.52,28.52,0,0,1,8.5,5.94,27.76,27.76,0,0,1,5.72,8.64,26.66,26.66,0,0,1,0,20.6,27.58,27.58,0,0,1-5.69,8.67,28.11,28.11,0,0,1-8.5,6,24.75,24.75,0,0,1-10.47,2.23H168.41Zm14.11,42.34h3.24a17.67,17.67,0,0,0,6.55-1.15,14.08,14.08,0,0,0,4.86-3.17,13.68,13.68,0,0,0,3-4.79,17.28,17.28,0,0,0,1-6.08,16.71,16.71,0,0,0-1.08-6.05,13.51,13.51,0,0,0-7.92-8,17.28,17.28,0,0,0-6.48-1.16h-3.24Z"/><path class="cls-1" d="M270.14,55.8H252.58L239.11,34.92V55.8H225V1.51h22a21.75,21.75,0,0,1,7.92,1.33,15.41,15.41,0,0,1,5.58,3.64,15.33,15.33,0,0,1,3.31,5.33,18.61,18.61,0,0,1,1.12,6.48,15.93,15.93,0,0,1-3,10,15,15,0,0,1-8.82,5.22Zm-31-30h2.66a10.3,10.3,0,0,0,6.41-1.73,5.91,5.91,0,0,0,2.24-5,5.91,5.91,0,0,0-2.24-5,10.3,10.3,0,0,0-6.41-1.73h-2.66Z"/><path class="cls-1" d="M272.59,46a70,70,0,0,1,2.23-18.09A52.33,52.33,0,0,1,281,13.29a31,31,0,0,1,9.46-9.76,22.55,22.55,0,0,1,24.23,0,31.25,31.25,0,0,1,9.54,9.76,51.49,51.49,0,0,1,6.23,14.62A70,70,0,0,1,332.71,46a70,70,0,0,1-2.23,18.09,51.37,51.37,0,0,1-6.23,14.62,31.29,31.29,0,0,1-9.54,9.77,22.61,22.61,0,0,1-24.23,0A31.07,31.07,0,0,1,281,78.71a52.2,52.2,0,0,1-6.2-14.62A70,70,0,0,1,272.59,46Zm14.76-17.34a14.36,14.36,0,0,0,1.23,6,14.76,14.76,0,0,0,3.31,4.75,15,15,0,0,0,4.86,3.14,15.68,15.68,0,0,0,16.63-3.14,14.87,14.87,0,0,0,3.35-4.75,15.24,15.24,0,0,0,0-12,15,15,0,0,0-3.35-4.75,15.61,15.61,0,0,0-10.76-4.25,15.41,15.41,0,0,0-5.87,1.12,14.93,14.93,0,0,0-8.17,7.88A14.41,14.41,0,0,0,287.35,28.66Z"/><path class="cls-1" d="M355.75,55.8H341.64V1.51H364.1q9.15,0,14,4.75T383,19.66q0,8.64-4.86,13.39t-14,4.75h-8.35Zm0-29.38h4.68q7.77,0,7.78-6.76t-7.78-6.77h-4.68Z"/></g></g></svg>